<?xml version="1.0" encoding="UTF-8" standalone="no"?>
<svg
   xmlns:dc="http://purl.org/dc/elements/1.1/"
   xmlns:cc="http://creativecommons.org/ns#"
   xmlns:rdf="http://www.w3.org/1999/02/22-rdf-syntax-ns#"
   xmlns:svg="http://www.w3.org/2000/svg"
   xmlns="http://www.w3.org/2000/svg"
   xmlns:sodipodi="http://sodipodi.sourceforge.net/DTD/sodipodi-0.dtd"
   xmlns:inkscape="http://www.inkscape.org/namespaces/inkscape"
   version="1.1"
   id="svg2"
   xml:space="preserve"
   width="299.99994"
   height="343.07202"
   viewBox="0 0 299.99994 343.07202"
   sodipodi:docname="panda.svg"
   inkscape:version="1.0.1 (3bc2e813f5, 2020-09-07)"><metadata
     id="metadata8"><rdf:RDF><cc:Work
         rdf:about=""><dc:format>image/svg+xml</dc:format><dc:type
           rdf:resource="http://purl.org/dc/dcmitype/StillImage" /><dc:title></dc:title></cc:Work></rdf:RDF></metadata><defs
     id="defs6" /><sodipodi:namedview
     pagecolor="#ffffff"
     bordercolor="#666666"
     borderopacity="1"
     objecttolerance="10"
     gridtolerance="10"
     guidetolerance="10"
     inkscape:pageopacity="0"
     inkscape:pageshadow="2"
     inkscape:window-width="1366"
     inkscape:window-height="704"
     id="namedview4"
     showgrid="false"
     inkscape:zoom="1"
     inkscape:cx="130.18849"
     inkscape:cy="168.60959"
     inkscape:window-x="0"
     inkscape:window-y="0"
     inkscape:window-maximized="1"
     inkscape:current-layer="g10"
     fit-margin-top="0"
     fit-margin-left="0"
     fit-margin-right="0"
     fit-margin-bottom="0" /><g
     id="g10"
     inkscape:groupmode="layer"
     inkscape:label="ink_ext_XXXXXX"
     transform="matrix(1.3333333,0,0,-1.3333333,-1133.335,4282.7481)"><g
       id="g12"
       transform="matrix(0.00953387,0,0,0.00953387,768.96323,2905.8274)"><g
         id="g14"
         transform="scale(2.45399)" /><g
         id="g18"
         transform="scale(1.61043)"><path
           d="m 12248.3,3186.85 c -2237.7,0 -4051.73,192.62 -4051.73,430.2 0,237.58 1814.03,430.19 4051.73,430.19 2237.7,0 4051.7,-192.61 4051.7,-430.19 0,-237.58 -1814,-430.2 -4051.7,-430.2"
           style="fill:#93b0d7;fill-opacity:1;fill-rule:nonzero;stroke:none"
           id="path20" /></g><g
         id="g22"
         transform="scale(1.97211)"><path
           d="m 5413.05,16280.1 c -299.73,-245.5 -633.81,-266.8 -723.31,-288.8 -18.16,-4.4 -22.68,-34.7 -22.68,-34.7 l 124.48,-673.1 c -48.16,5.3 -102.41,-2.9 -154.97,-26.5 -123.24,-55.3 -190.18,-173.5 -149.53,-264.1 40.65,-90.7 173.5,-119.3 296.74,-64 123.23,55.3 190.17,173.5 149.53,264.2 -1.24,2.7 -2.82,5.2 -4.22,7.9 l -104.52,645.8 c 239.02,-45.7 523.67,147.7 523.67,147.7 l 106.44,-509 c -42.44,1.1 -88.54,-7.8 -133.36,-27.9 -123.22,-55.3 -190.2,-173.6 -149.54,-264.2 40.67,-90.6 173.52,-119.3 296.74,-64 123.22,55.3 190.2,173.6 149.54,264.2 -1.02,2.2 -2.34,4.3 -3.45,6.4 l -153.54,873.1 c 0,0 -23.68,26.9 -48.02,7"
           style="fill:#00c3ff;fill-opacity:1;fill-rule:nonzero;stroke:none"
           id="path24" /></g><g
         id="g26"
         transform="scale(1.90063)"><path
           d="m 16252.6,7721.27 c -356.5,-185.67 -700.3,-136.32 -795.8,-139.63 -19.5,-0.69 -30.5,-30.52 -30.5,-30.52 l -16.5,-710.03 c -47.8,15.58 -104.6,18.79 -163,6 -136.9,-29.99 -230.1,-135.85 -208,-236.55 22,-100.65 150.9,-157.95 287.8,-127.96 136.9,29.99 230,135.85 208,236.55 -0.7,3.05 -1.8,5.9 -2.7,8.9 l 31.1,678.14 c 233,-97.13 563.2,38.83 563.2,38.83 v -539.56 c -42.9,10.05 -91.6,10.84 -141.4,-0.05 -136.9,-29.99 -230,-135.9 -207.9,-236.56 22,-100.64 150.9,-158 287.8,-128.01 136.9,30 229.9,135.91 207.9,236.56 -0.5,2.47 -1.4,4.84 -2.1,7.26 l 29.5,919.33 c 0,0 -18.4,32.35 -47.4,17.3"
           style="fill:#00c3ff;fill-opacity:1;fill-rule:nonzero;stroke:none"
           id="path28" /></g><g
         id="g30"
         transform="scale(1.30729)"><path
           d="m 7105.21,15338.5 -282.88,612.1 c 407.68,-87.4 407.68,203.8 407.68,203.8 -174.72,-58.2 -553.28,87.4 -611.52,116.5 -58.24,29.1 -116.48,0 -116.48,-87.3 0,-22.8 248.41,-577.9 357.41,-820.3 -83.95,-32.6 -161.78,-102.7 -210.33,-200.1 -89.7,-179.9 -45.75,-383.9 98.17,-455.7 143.93,-71.7 333.33,16 423.03,195.9 82.36,165.1 51.8,350.3 -65.08,435.1"
           style="fill:#f4cb00;fill-opacity:1;fill-rule:nonzero;stroke:none"
           id="path32" /></g><g
         id="g34"
         transform="scale(1.96933)"><path
           d="m 15921.1,14921.7 79.6,440.4 c 188.3,-202.9 299.3,-44.6 299.3,-44.6 -117.1,34.9 -267.4,258.4 -287.9,296.4 -20.6,38 -63.3,44.4 -96.6,-3.1 -8.7,-12.3 -85.3,-408.7 -118.5,-582 -58.1,14.3 -127,5.8 -190.5,-28.5 -117.4,-63.6 -171.3,-191.3 -120.4,-285.1 50.8,-93.9 187.2,-118.5 304.5,-54.8 107.7,58.3 161.8,170.6 130.5,261.3"
           style="fill:#f9195a;fill-opacity:1;fill-rule:nonzero;stroke:none"
           id="path36" /></g><g
         id="g38"
         transform="scale(1.9879)"><path
           d="m 6748.79,13604.2 c 0,0 -137.68,1416.9 1580.92,2073.1 1630.87,622.7 4063.29,270.7 4864.89,-379.1 801.7,-649.8 829.3,-1678.6 829.3,-1678.6 l -774,-108.3 c 0,0 -138.2,1489.1 -995.1,1732.8 -856.9,243.7 -3676.34,189.5 -4063.33,-54.2 -386.94,-243.7 -469.89,-1137.1 -469.89,-1137.1 l -972.79,-448.6"
           style="fill:#f9195a;fill-opacity:1;fill-rule:nonzero;stroke:none"
           id="path40" /></g><g
         id="g42"
         transform="scale(1.94414)"><path
           d="m 7551.38,15355.7 c 255.69,256.1 588.23,464.8 987.64,617.3 596.4,227.7 1315.03,327 2025.18,327 445.1,0 887,-39 1293.1,-109.9 l 402.8,-92.8 c -570.4,98.2 -1085.7,138.9 -1548.7,138.9 -1894.26,0 -2904.95,-681.2 -3160.02,-880.5"
           style="fill:#fda3bd;fill-opacity:1;fill-rule:nonzero;stroke:none"
           id="path44" /></g><g
         id="g46"
         transform="scale(1.90705)"><path
           d="m 8045.75,15605 c 196.53,254.2 547.07,538.2 1146.53,587.1 606.18,49.5 1603.02,107.9 2451.22,107.9 722.9,0 1337.8,-42.4 1510,-169 80,-58.7 143.9,-136.5 195.1,-222.5 -213.1,155.6 -467.7,245.7 -735.8,245.7 -43.7,0 -87.8,-2.4 -132.1,-7.3 -117.9,-13 -231.9,-43.1 -339.4,-88.9 -400.9,40.2 -893.2,59.6 -1386,59.6 -1004.72,0 -2011.41,-80.8 -2249.73,-230.9 -91.09,-57.3 -166.81,-145 -229.57,-247.7 -78.97,-2.5 -155.95,-14.1 -230.25,-34"
           style="fill:#b21c64;fill-opacity:1;fill-rule:nonzero;stroke:none"
           id="path48" /></g><g
         id="g50"
         transform="scale(1.978)"><path
           d="m 10369.5,15539.4 c 789.7,0 1578.1,-51.7 1963.1,-161.2 798,-226.9 999,-1436.8 1036.4,-1731.2 l 661.3,92.6 c -19.5,216.8 -136.6,1044.6 -807.5,1588.5 -819.1,663.9 -3257.37,971.9 -4829.97,371.5 -687.92,-262.7 -1174.01,-695 -1405.61,-1250.2 -123.26,-295.5 -144.95,-554.9 -146.82,-684.3 l 863.65,398.4 c 20.18,173.1 127.46,921 496.42,1153.3 229.77,144.8 1200.35,222.6 2169.03,222.6 m 2946.7,-2020.6 c -13.5,0 -26.6,4.5 -37.3,13 -12.9,10.2 -21,25.2 -22.6,41.6 -1.3,14.5 -145.2,1458.4 -956.6,1689.1 -887.8,252.5 -3680.27,176 -4035.18,-47.4 -359.25,-226.2 -443.58,-1088.8 -444.39,-1097.5 -2.02,-21.4 -15.22,-40.1 -34.73,-49.1 l -977.66,-450.8 c -17.64,-8.2 -38.22,-7.3 -55.1,2.4 -16.89,9.7 -28.06,27 -29.93,46.3 -1.47,15.2 -33.92,376.1 151.01,823.3 169.92,410.9 564,973.9 1476.19,1322.2 764.86,292.1 1753.79,396.1 2784.59,292.8 944,-94.6 1753,-350 2164.1,-683.2 817.6,-662.8 854.4,-1688.8 855.6,-1732.1 0.8,-30.6 -21.5,-57 -51.8,-61.2 l -777.9,-108.8 c -2.7,-0.4 -5.5,-0.6 -8.3,-0.6"
           style="fill:#0f227a;fill-opacity:1;fill-rule:nonzero;stroke:none"
           id="path52" /></g><g
         id="g54"
         transform="scale(1.71531)"><path
           d="m 6734.11,15200.1 c -237.16,-682.2 -23.15,-1370.7 477.93,-1537.8 501.07,-167.1 861.59,329.8 1098.69,1012.1 237.16,682.2 261.18,1291.4 -239.9,1458.5 -501.13,167.1 -1099.56,-250.5 -1336.72,-932.8"
           style="fill:#f4cb00;fill-opacity:1;fill-rule:nonzero;stroke:none"
           id="path56" /></g><g
         id="g58"
         transform="scale(1.69068)"><path
           d="m 6840.14,14866.8 c 1.25,169.7 31.76,347.4 91.8,520.2 189.45,545 618.69,913 1022.55,913 39.8,0 79.37,-3.6 118.41,-10.9 -0.95,-11.5 -1.77,-23 -2.48,-34.5 -17.27,-8.9 -34.49,-18.5 -51.52,-28.7 -312.3,-33.7 -546.23,-179.6 -721.37,-373.6 -50.51,-21.5 -106.64,-74.5 -149.11,-146.7 -27.74,-47 -45.37,-94.8 -52.58,-137.4 -133.85,-237.6 -211.34,-496.9 -255.7,-701.4"
           style="fill:#fbea99;fill-opacity:1;fill-rule:nonzero;stroke:none"
           id="path60" /></g><g
         id="g62"
         transform="scale(1.72755)"><path
           d="m 6783.99,15058.6 c -126.65,-364.4 -119.01,-751.1 20.38,-1034.5 88.85,-180.6 223.43,-305.3 389.22,-360.6 53.02,-17.7 104.08,-25.9 153.05,-25.9 385.17,-0.1 648.66,509.4 807.67,966.7 170.3,490 201.91,867.9 91.29,1092.6 -53.6,109 -140.14,182.2 -264.65,223.7 -443.41,147.8 -980.35,-238.8 -1196.96,-862 m 570,-1629.4 c -79.77,0 -155.71,15 -225.7,38.3 -219.38,73.2 -395.53,234.1 -509.27,465.5 -165.73,336.8 -176.73,771.8 -30.16,1193.4 253.54,729.4 907.41,1173.6 1457.44,990.2 177.13,-59.1 306.56,-169.6 384.7,-328.5 137.43,-279.4 109.99,-700.5 -81.56,-1251.6 -303.43,-872.9 -679.45,-1107.3 -995.45,-1107.3"
           style="fill:#0f227a;fill-opacity:1;fill-rule:nonzero;stroke:none"
           id="path64" /></g><g
         id="g66"
         transform="scale(1.69726)"><path
           d="m 9280.97,14473.5 c -197.91,-791.8 -830.81,-1320.5 -1413.63,-1180.7 -582.77,139.8 -750.74,813.5 -552.78,1605.3 197.91,791.9 686.76,1401.9 1269.52,1262.1 582.83,-139.7 894.86,-894.9 696.89,-1686.7"
           style="fill:#f9195a;fill-opacity:1;fill-rule:nonzero;stroke:none"
           id="path68" /></g><g
         id="g70"
         transform="scale(1.64017)"><path
           d="m 7854.3,14350.2 c -66.58,280.5 -51.28,625.5 41.21,995.4 94.26,377.1 252.23,714.2 454.1,954.4 16.16,-80.4 37.8,-158.3 64.51,-233.4 -232.29,-421.6 -375.02,-887.9 -406.91,-1381.7 -62.13,-103.6 -113.1,-215.3 -152.91,-334.7"
           style="fill:#b21c64;fill-opacity:1;fill-rule:nonzero;stroke:none"
           id="path72" /></g><g
         id="g74"
         transform="scale(1.70118)"><path
           d="m 8398.8,16037.9 c -479.49,0 -848.47,-595.8 -999.37,-1199.6 -120.15,-480.6 -95.87,-909.8 66.61,-1177.6 93.64,-154.4 230.77,-254.2 407.59,-296.5 55.08,-13.3 110.75,-19.7 166.36,-19.7 475.02,0 953.81,464.7 1117.81,1121 106.75,427 58.19,867.1 -129.85,1177.1 -121.39,200 -290.15,330.9 -488.13,378.4 -47.91,11.4 -95,16.9 -141.02,16.9 m -362.22,-2902.8 c -70.78,0 -141.61,8.2 -211.85,25 -230.02,55.2 -416.07,190.7 -538.1,391.8 -194.1,320 -226.31,794.9 -90.76,1337.3 104.69,418.8 287.45,782.6 514.64,1024.5 261.7,278.7 565.43,386.3 878.21,311.2 253.65,-60.7 467.56,-224.5 618.57,-473.5 219.73,-362.2 275.87,-849.4 154.01,-1336.8 -187.69,-751.1 -754.06,-1279.5 -1324.72,-1279.5"
           style="fill:#0f227a;fill-opacity:1;fill-rule:nonzero;stroke:none"
           id="path76" /></g><g
         id="g78"
         transform="scale(1.47999)"><path
           d="m 16175.9,9990.18 c 124.1,-272.84 -18.6,-600.14 -318.7,-731.15 -300.2,-130.95 -644.2,-15.95 -768.2,256.82 -124.1,272.84 18.6,600.25 318.8,731.15 300.1,131 644,16 768.1,-256.82"
           style="fill:#455665;fill-opacity:1;fill-rule:nonzero;stroke:none"
           id="path80" /></g><g
         id="g82"
         transform="scale(1.47572)"><path
           d="m 15709.6,10313.9 c -83,0 -168.4,-16.9 -250.4,-52.7 -148.4,-64.8 -265,-184 -319.9,-327.12 -48.9,-127.4 -45.8,-263.67 8.8,-383.61 120.5,-264.82 456.1,-376.63 748.2,-249.03 148.4,64.71 265,183.98 319.9,327.03 48.9,127.46 45.7,263.67 -8.8,383.63 -86.7,190.5 -284.7,301.8 -497.8,301.8 M 15646,9214.84 c -226,0 -436.5,118.72 -528.7,321.61 -58.4,128.27 -61.8,273.83 -9.7,409.76 58.2,151.49 181.4,277.69 338,345.99 309,134.9 664.5,15.5 792.6,-266 58.3,-128.3 61.8,-273.86 9.6,-409.86 -58.1,-151.52 -181.2,-277.63 -337.9,-346 -86.3,-37.61 -176.3,-55.5 -263.9,-55.5"
           style="fill:#0f227a;fill-opacity:1;fill-rule:nonzero;stroke:none"
           id="path84" /></g><g
         id="g86"
         transform="scale(1.48542)"><path
           d="m 15607.7,10143.4 c -68.8,0 -139.9,-14.1 -208.1,-43.9 -122.3,-53.4 -218,-150.78 -262.7,-267.25 -38.6,-100.57 -36.3,-207.61 6.3,-301.39 96.5,-212 369.2,-299.72 608,-195.5 122.3,53.32 218,150.73 262.7,267.26 38.6,100.51 36.3,207.55 -6.4,301.4 -68.9,151.38 -227.6,239.38 -399.8,239.38 m -63.3,-1091.87 c -264,0 -511,140.43 -619.8,379.9 -69.6,152.81 -73.8,325.7 -12,486.86 67.6,176.21 210,322.51 390.8,401.41 358.4,156.4 772.4,14.5 922.8,-316.2 69.6,-152.87 73.8,-325.81 12,-486.91 -67.6,-176.19 -210,-322.54 -390.9,-401.44 -99,-43.15 -202.2,-63.62 -302.9,-63.62"
           style="fill:#0f227a;fill-opacity:1;fill-rule:nonzero;stroke:none"
           id="path88" /></g><g
         id="g90"
         transform="scale(1.39341)"><path
           d="m 13895.5,9780.17 c 0,0 -257,-1916.37 805.9,-2288.12 0,0 68,-935.55 602.7,-963.83 534.6,-28.27 995.9,923.35 785,1572.91 -210.7,649.55 -59.5,127.88 -59.5,127.88 0,0 -178.4,1431.46 118.6,1750.46 l -2252.7,-199.3"
           style="fill:#5e5475;fill-opacity:1;fill-rule:nonzero;stroke:none"
           id="path92" /></g><g
         id="g94"
         transform="scale(1.38902)"><path
           d="m 15375.6,6530.27 c -8.1,0 -16.1,0.21 -24.1,0.64 -519.3,27.43 -610.6,857.3 -620.7,971.76 -1054.9,382.87 -811.9,2291.47 -809.3,2310.76 l 35.7,-4.82 c -2.6,-19.08 -243.5,-1912.13 796.6,-2275.91 l 11.1,-3.89 0.9,-11.81 c 0.7,-9.21 73.3,-922.95 587.6,-950.16 179.4,-9.79 362.9,96.33 517.7,297.76 230.3,300.07 390.9,827.99 251.8,1256.57 -16.9,51.9 -31.2,95.53 -43.3,132.32 l -16.7,-3.46 c -62.1,214.26 -61.3,214.54 -40.4,220.95 6.7,2.02 11.3,3.46 17.5,-4.46 -37.3,415.18 -86.8,1306.67 146,1556.68 l 26.3,-24.46 c -247.6,-266.01 -155.9,-1345.47 -123.6,-1657.06 16.5,-49.46 38.4,-117.13 68.4,-209.43 142.9,-440.38 -21.4,-982.05 -257.5,-1289.54 -155.4,-202.29 -340.6,-312.44 -524,-312.44"
           style="fill:#0f227a;fill-opacity:1;fill-rule:nonzero;stroke:none"
           id="path96" /></g><g
         id="g98"
         transform="scale(1.35628)"><path
           d="m 15559.3,7370.22 c -76.2,0 -164.6,9.44 -267.4,30.53 -43.7,165.23 -56.6,303.1 -56.9,306.42 -4,52.13 -38.4,96.88 -87.7,114.14 -638.1,223.18 -760,1087.97 -767,1667.13 150.7,-17.33 294.2,-24.41 428.3,-24.41 15.8,0 31.6,0.08 47.2,0.3 544.2,6.78 1041.3,126 1444.2,287.11 -4.9,-46.67 -8.9,-94.45 -11.9,-142.82 -202.8,-101.16 -654.6,-280.69 -1307,-280.69 -161.5,0 -335.6,11.06 -521,37.01 0,0 -132.8,-1447.19 1118,-1447.19 100.6,0 210.1,9.36 329.3,29.56 0,0 28.6,3.54 66.5,3.54 94.6,0 246.7,-21.97 152.8,-175.33 -103,-168.11 -183.5,-405.3 -567.4,-405.3"
           style="fill:#464577;fill-opacity:1;fill-rule:nonzero;stroke:none"
           id="path100" /></g><g
         id="g102"
         transform="scale(1.39961)"><path
           d="m 15343.5,6366.4 c -38.1,0 -78,1.93 -119.7,6 -531,52.16 -672.4,752.78 -705.6,995.78 -1056.1,457.19 -821.4,2305.35 -810.7,2385.58 9.4,69.74 73.6,118.68 143.2,109.39 69.9,-9.29 118.8,-73.45 109.6,-143.25 -2.4,-18.01 -229.4,-1809.29 718,-2140.74 47.8,-16.72 81.2,-60.08 85.1,-110.6 0.6,-7.86 74.6,-802.01 485.3,-842.37 244.2,-23.87 430.9,42.01 554.9,196.19 236.8,294.3 214.2,830.16 93,1203.48 -8.5,26.15 -16.3,50.08 -23.4,72.02 -17.2,15.36 -30.3,35.58 -37.1,59.23 0,0 -14.4,49.65 -28.2,99.53 -21.8,78.8 -44.2,159.61 -6,211.63 -39.3,466.55 -67.8,1286.14 181.4,1553.83 48,51.5 128.6,54.4 180.2,6.5 51.5,-48.06 54.4,-128.73 6.5,-180.24 -166.4,-178.69 -157.2,-979.7 -95.8,-1546 17.1,-51.22 38.9,-117.46 65,-197.77 146.4,-451.12 160.8,-1071.94 -136.9,-1442.04 -112.3,-139.46 -314.9,-296.15 -658.8,-296.15"
           style="fill:#0f227a;fill-opacity:1;fill-rule:nonzero;stroke:none"
           id="path104" /></g><g
         id="g106"
         transform="scale(1.2075)"><path
           d="m 13297.8,15411.6 c 0,0 -879,-206.9 -1751.8,220.6 -461,225.7 -1015.3,667.8 -1406.2,284.9 -581.85,-569.9 -234.68,-2248.4 1846.5,-2169.1 2081.2,79.4 1596.3,126.8 1596.3,126.8 l -284.8,1536.8"
           style="fill:#5e5475;fill-opacity:1;fill-rule:nonzero;stroke:none"
           id="path108" /></g><g
         id="g110"
         transform="scale(1.2042)"><path
           d="m 11874.5,13762.1 c -1297.4,0 -1739,691.4 -1870.6,997 -190.85,443.2 -129.56,943.5 149.1,1216.4 331.4,324.5 778.5,76.3 1172.9,-142.7 90.9,-50.4 176.7,-98 260.9,-139.3 858.5,-420.4 1733.8,-221.6 1742.6,-219.4 l 9.5,-40.5 c -8.9,-2.1 -898.7,-204.3 -1770.4,222.7 -85.1,41.6 -171.4,89.6 -262.7,140.2 -400.5,222.3 -814.6,452.2 -1123.7,149.3 -266.66,-261.1 -324.29,-742.4 -140.1,-1170.2 133.1,-309 592.2,-1021.8 1976.3,-969.2 1156,44 1501.2,77.7 1600.4,96.1 l 3,31 c 49.5,-4.9 68.5,-14.7 67.9,-35.3 -1,-31.1 -2.1,-69.7 -1669.7,-133.3 -49.6,-1.8 -98.2,-2.8 -145.4,-2.8"
           style="fill:#0f227a;fill-opacity:1;fill-rule:nonzero;stroke:none"
           id="path112" /></g><g
         id="g114"
         transform="scale(1.17931)"><path
           d="m 12741.4,15488.3 c -795.3,0 -1373.5,629.9 -1911.8,673.9 -10.7,0.9 -21.3,1.3 -32,1.3 -177.9,0 -356.7,-115.9 -452.1,-189.3 34.8,83.1 82.5,156.5 142.6,215.2 79,77.4 167.9,110.6 269.2,110.6 192.1,0 428.4,-119.8 724,-283.9 90.5,-50.2 184.1,-102.2 274.1,-146.3 465.7,-228.1 929.5,-289.6 1281.9,-293 l 11.7,-56.8 c -106.2,-22 -208.6,-31.7 -307.6,-31.7"
           style="fill:#bfbbc8;fill-opacity:1;fill-rule:nonzero;stroke:none"
           id="path116" /></g><g
         id="g118"
         transform="scale(1.12797)"><path
           d="m 12678.2,14872.6 c -1279,0 -1706.4,662.2 -1832.5,955.4 -24.1,56 -43.9,113.3 -59.4,170.9 331.6,-410.5 948.9,-936.6 1936.2,-936.6 157.1,0 323.7,13.4 499.9,42.6 206.5,34.3 366,198.9 396,406 30.7,212.4 95,501.1 229.1,779.7 45.7,2.5 88.3,5.7 127.6,9.4 50.4,-20.5 101.1,-40.4 152.6,-60 -11.7,-35.6 -23.3,-71.3 -34.8,-107.1 -144.4,-452.8 -245.5,-857.9 -303.2,-1214.5 -237.7,-12.8 -551.1,-27.2 -964.4,-43 -50.3,-1.9 -99.2,-2.8 -147.1,-2.8"
           style="fill:#464577;fill-opacity:1;fill-rule:nonzero;stroke:none"
           id="path120" /></g><g
         id="g122"
         transform="scale(1.21584)"><path
           d="m 13487.1,13631.7 h 0.4 -0.4 m -1726.8,-127.5 c -1359.2,0 -1827.66,737.7 -1968.06,1063.7 -209.16,485.9 -137.11,1038.8 175.27,1344.9 395.49,387.2 903.29,105.3 1311.29,-121.2 88.5,-49.1 172.1,-95.5 252.6,-134.9 806.4,-394.9 1633.4,-209.8 1641.7,-207.9 78.8,18.2 157.8,-30.7 176.2,-109.5 18.4,-78.8 -30.4,-157.7 -109.2,-176.3 -37.6,-8.9 -934.3,-212.4 -1837.9,230.1 -87.2,42.7 -178,93.1 -265.9,141.8 -437.6,243 -741,385.9 -963.3,168.1 -224.16,-219.5 -270.88,-648 -111.2,-1018.9 121.5,-282.2 543.4,-932.9 1836.6,-883.8 1332.5,50.9 1547.2,86.9 1581.2,96.8 -36.9,-10.7 -90.5,-61.2 -88.3,-135.6 2,-66.7 47.6,-111.5 83.9,-126 l 28.5,290.2 c 171.9,-16.9 182,-130.1 181,-164.3 -3.9,-129.1 -136.5,-151.2 -180,-158.5 -52.9,-8.9 -132.6,-17.6 -244,-26.6 -273.2,-22.2 -727.8,-45.5 -1351.1,-69.3 -50.9,-1.9 -100.7,-2.8 -149.3,-2.8"
           style="fill:#0f227a;fill-opacity:1;fill-rule:nonzero;stroke:none"
           id="path124" /></g><g
         id="g126"
         transform="scale(1.53162)"><path
           d="m 15542.3,13396.1 c 0,0 757.7,-2706.8 -368.6,-4152.29 -397.7,-510.44 -2873.8,-1673.72 -4776.8,646.7 -611.64,745.79 644.5,3350.99 644.5,3350.99 l 4500.9,154.6"
           style="fill:#fef2f4;fill-opacity:1;fill-rule:nonzero;stroke:none"
           id="path128" /></g><g
         id="g130"
         transform="scale(1.4467)"><path
           d="m 13884.3,9119.24 c -485.1,0 -1109.3,107.35 -1752.5,507.92 1.8,25.36 2.8,51.56 2.8,78.72 0,564.52 -493.6,1054.52 -498.6,1059.42 l -1.5,1.3 c -4.8,3.7 -303.4,231.4 -682.9,376.2 0.8,81.8 6.7,168.2 16.6,258 238.4,-56.6 636,-195.7 943.5,-527 411.2,-443 493.4,-1288.74 493.4,-1288.74 0,0 683.9,-340.64 1553.2,-340.64 749.2,0 1636.3,253.06 2341.7,1195.38 -86.6,-207.1 -196,-401.9 -332.9,-577.56 -190.6,-244.69 -1010.8,-729.87 -2042.9,-742.79 -13.2,-0.14 -26.5,-0.21 -39.9,-0.21"
           style="fill:#b6b3cf;fill-opacity:1;fill-rule:nonzero;stroke:none"
           id="path132" /></g><g
         id="g134"
         transform="scale(1.50647)"><path
           d="m 11979.9,13411.1 c -370.1,-168.8 -707.4,-357.9 -990.9,-564.2 -146.5,-355.3 -329.1,-842.4 -452,-1324.2 388.1,52.3 992.8,102.7 1652.3,41.2 1342.6,-125.3 2788.5,-1086.8 3709.6,-1263.9 401.1,1461.7 -97.1,3242.4 -97.1,3242.4 l -3821.9,-131.3"
           style="fill:#5e5475;fill-opacity:1;fill-rule:nonzero;stroke:none"
           id="path136" /></g><g
         id="g138"
         transform="scale(1.46683)"><path
           d="m 16242.2,10813.7 c -37.8,117.9 -71.8,253 -62.8,336.8 40.4,-15.6 80.6,-30.5 120.6,-44.7 -15.9,-98.2 -35,-195.8 -57.8,-292.1"
           style="fill:#464577;fill-opacity:1;fill-rule:nonzero;stroke:none"
           id="path140" /></g><g
         id="g142"
         transform="scale(1.54241)"><path
           d="m 13021.6,8322 c -747.9,0 -1824.5,252.53 -2786.9,1425.96 -278.3,339.44 -254.25,1029.14 71.5,2050.14 235.7,738.5 550.7,1394.5 553.9,1401.2 27.7,57.5 96.9,81.6 154.4,53.9 57.6,-27.8 81.7,-96.9 54,-154.5 -338,-701.2 -1114.44,-2643.6 -654.8,-3204.02 921.9,-1124.22 1947.1,-1349.52 2646.6,-1341.09 968,12.12 1737.3,467.19 1916.1,696.7 1069.1,1372.11 353.2,3994.71 345.8,4021.11 -17.2,61.5 18.7,125.3 80.2,142.5 61.5,17.2 125.4,-18.7 142.6,-80.2 31.4,-112.1 755,-2761.1 -386.1,-4225.65 -241,-309.32 -1073.8,-773.02 -2095.8,-785.79 -13.7,-0.19 -27.5,-0.26 -41.5,-0.26"
           style="fill:#0f227a;fill-opacity:1;fill-rule:nonzero;stroke:none"
           id="path144" /></g><g
         id="g146"
         transform="scale(1.77976)"><path
           d="m 13439.3,10697.7 c 0,0 568.3,-339 1223.1,8.5 654.8,347.6 919.5,497.7 1203.2,39.1 434.4,-702.5 -514.9,-2255.17 -2540.1,-1443.99 l 113.8,1396.39"
           style="fill:#5e5475;fill-opacity:1;fill-rule:nonzero;stroke:none"
           id="path148" /></g><g
         id="g150"
         transform="scale(1.7547)"><path
           d="m 14604.7,9187.5 c -339.8,-0.06 -706.1,78.02 -1094.2,233.43 l 10.6,26.44 c 1460.7,-585.05 2183.8,94.84 2370.6,317.15 300.2,357.18 377.7,820.58 188.3,1126.68 -276.3,446.7 -519.8,317.3 -1170.9,-28.4 l -30.7,-16.2 c -663.5,-352.3 -1248.7,-11.9 -1254.5,-8.4 l 14.6,24.5 c 5.7,-3.4 577.6,-335.4 1226.6,9 l 30.6,16.3 c 649.4,344.9 918.3,487.6 1208.5,18.3 195.8,-316.6 117.4,-793.6 -190.6,-1160.13 -157.1,-186.81 -443.4,-428.9 -916.2,-521.51 -126.4,-24.79 -257.5,-37.16 -392.7,-37.16"
           style="fill:#0f227a;fill-opacity:1;fill-rule:nonzero;stroke:none"
           id="path152" /></g><g
         id="g154"
         transform="scale(1.68986)"><path
           d="m 14679.2,10891.6 c -252.2,0 -363.5,85.5 -407.8,137.3 19.1,16.5 37.3,33.1 54.7,49.8 119.1,-38.9 279.1,-74.6 465.3,-74.6 207.8,0 448.1,44.5 700.5,178.4 l 31.8,16.9 c 382.2,203 603.3,315.2 763,315.2 4.5,0 8.9,0 13.3,-0.2 -189.5,-53.9 -331.6,-295.9 -1033.6,-515.9 -251.4,-78.8 -442.5,-106.9 -587.2,-106.9"
           style="fill:#bfbbc8;fill-opacity:1;fill-rule:nonzero;stroke:none"
           id="path156" /></g><g
         id="g158"
         transform="scale(1.46523)"><path
           d="m 13620.1,11949.4 c -190.8,0 -391.2,6.2 -600.6,19.5 -827.4,52.3 -1356.4,203.4 -1693.9,382.7 684.4,-199.7 1470.8,-305.7 2302.9,-305.7 228.6,0 462,16 693.6,47.5 712.1,73.1 1385.8,282.9 1977.9,604.2 l -8.8,-108.2 c -508.8,-353.5 -1379.7,-640.1 -2671.1,-640"
           style="fill:#464577;fill-opacity:1;fill-rule:nonzero;stroke:none"
           id="path160" /></g><g
         id="g162"
         transform="scale(1.47955)"><path
           d="m 16133.5,12467.6 8.8,107.1 c 43,23.3 85.7,47.3 127.8,71.8 l 0.4,-5.9 c 0,0 7.6,-18.4 29.5,-44.1 -50.4,-43.7 -105.8,-86.8 -166.5,-128.9"
           style="fill:#464577;fill-opacity:1;fill-rule:nonzero;stroke:none"
           id="path164" /></g><g
         id="g166"
         transform="scale(1.48522)"><path
           d="m 16237.8,12548.4 c -21.8,25.6 -29.4,43.9 -29.4,43.9 l -0.4,6 c 13.9,8 27.6,16.1 41.4,24.3 16.1,-5.8 32.9,-11.6 50.6,-17.4 -19.8,-19 -40.5,-37.9 -62.2,-56.8"
           style="fill:#8a8db0;fill-opacity:1;fill-rule:nonzero;stroke:none"
           id="path168" /></g><g
         id="g170"
         transform="scale(1.73697)"><path
           d="m 14751.4,9398.21 c -256.5,0 -555.3,46.98 -899.9,167.71 l -6.4,19.45 c 0,0 250.7,-49.34 591.3,-49.34 650.2,0 1627.4,180.2 1808.4,1228.07 55.2,-259.9 -38,-580.7 -258.5,-843.09 -127.1,-151.18 -513.7,-522.8 -1234.9,-522.8"
           style="fill:#464577;fill-opacity:1;fill-rule:nonzero;stroke:none"
           id="path172" /></g><g
         id="g174"
         transform="scale(1.76482)"><path
           d="m 14520.9,9047.86 c -348.9,0 -724,79.67 -1120.1,238.38 -51.9,20.74 -77.1,79.61 -56.3,131.46 20.8,51.79 79.6,76.95 131.5,56.26 1398,-560 2081.8,80.75 2258,290.51 274.8,326.83 348.7,745.73 179.9,1018.63 -224,362.2 -374.7,299 -1049.5,-59.4 l -30.4,-16.1 c -702.7,-372.9 -1307.3,-21.3 -1332.7,-6.2 -47.9,28.6 -63.6,90.7 -35,138.7 28.5,47.8 90.4,63.5 138.3,35.1 21.6,-12.6 535.2,-307.1 1134.5,11 l 30.4,16.2 c 635.1,337.2 984.9,522.9 1316.4,-12.9 214.1,-346.2 133.1,-862.3 -197,-1255.12 -165.1,-196.45 -465.8,-450.99 -960.7,-547.94 -131.3,-25.72 -267.2,-38.58 -407.3,-38.58"
           style="fill:#0f227a;fill-opacity:1;fill-rule:nonzero;stroke:none"
           id="path176" /></g><g
         id="g178"
         transform="scale(1.82824)"><path
           d="m 9860.09,14932.8 c 0,-755.1 -534.23,-1367.2 -1193.17,-1367.2 -658.94,0 -1193.12,612.1 -1193.12,1367.2 0,755.1 534.18,1367.2 1193.12,1367.2 658.94,0 1193.17,-612.1 1193.17,-1367.2"
           style="fill:#5e5475;fill-opacity:1;fill-rule:nonzero;stroke:none"
           id="path180" /></g><g
         id="g182"
         transform="scale(1.82977)"><path
           d="m 8659.65,16272.7 c -649.8,0 -1178.45,-606.7 -1178.45,-1352.4 0,-745.8 528.65,-1352.4 1178.45,-1352.4 649.81,0 1178.51,606.6 1178.51,1352.4 0,745.7 -528.7,1352.4 -1178.51,1352.4 m 0,-2732.2 c -664.89,0 -1205.77,619 -1205.77,1379.8 0,760.8 540.88,1379.7 1205.77,1379.7 664.89,0 1205.84,-618.9 1205.84,-1379.7 0,-760.8 -540.95,-1379.8 -1205.84,-1379.8"
           style="fill:#0f227a;fill-opacity:1;fill-rule:nonzero;stroke:none"
           id="path184" /></g><g
         id="g186"
         transform="scale(1.86612)"><path
           d="m 7608.67,15411.9 c -15.38,-18.1 -34.94,-31.2 -51.55,-46.2 -91.79,-151.5 -156.85,-325.6 -187.77,-513.7 0.32,0.6 375.06,1081.1 1716.24,900.3 0,0 -722.2,547.7 -1476.92,-340.4"
           style="fill:#bfcfd9;fill-opacity:1;fill-rule:nonzero;stroke:none"
           id="path188" /></g><g
         id="g190"
         transform="scale(1.70661)"><path
           d="m 8105.64,15475.3 c -54.61,162 -84.55,337.9 -84.55,521.8 0,95.4 8.09,188.6 23.5,279 l 21.62,9.3 c -2.87,-15.1 -5.57,-30.1 -8.09,-45.3 0.06,0.1 6.51,18.6 20.57,50.6 l 21.74,9.3 c 0,0 61.93,-318.5 160.78,-575.8 -55.54,-80.9 -107.4,-163.9 -155.57,-248.9"
           style="fill:#464577;fill-opacity:1;fill-rule:nonzero;stroke:none"
           id="path192" /></g><g
         id="g194"
         transform="scale(1.70411)"><path
           d="m 8107.75,15480.6 c -57.8,167 -89.55,349.2 -89.55,539.9 0,93.3 7.92,184.4 22.42,272.8 l 15.78,6.7 c -15.43,-90.5 -23.53,-183.8 -23.53,-279.4 0,-184.2 29.99,-360.3 84.68,-522.5 -3.23,-5.8 -6.57,-11.8 -9.8,-17.5"
           style="fill:#0f227a;fill-opacity:1;fill-rule:nonzero;stroke:none"
           id="path196" /></g><g
         id="g198"
         transform="scale(1.70564)"><path
           d="m 8062.73,16249.4 c 2.52,15.2 5.22,30.3 8.09,45.3 l 12.49,5.3 c -14.07,-32 -20.52,-50.5 -20.58,-50.6"
           style="fill:#8a9bbc;fill-opacity:1;fill-rule:nonzero;stroke:none"
           id="path200" /></g><g
         id="g202"
         transform="scale(1.83919)"><path
           d="m 8615.31,16105.9 c -600.48,0 -1088.95,-566.1 -1088.95,-1262 0,-695.9 488.47,-1262.1 1088.95,-1262.1 600.49,0 1089.02,566.2 1089.02,1262.1 0,695.9 -488.53,1262 -1089.02,1262 z m 0,-2718.1 c -707.48,0 -1283.01,653.2 -1283.01,1456.1 0,802.9 575.53,1456.1 1283.01,1456.1 707.49,0 1283.07,-653.2 1283.07,-1456.1 0,-802.9 -575.58,-1456.1 -1283.07,-1456.1"
           style="fill:#0f227a;fill-opacity:1;fill-rule:nonzero;stroke:none"
           id="path204" /></g><g
         id="g206"
         transform="scale(1.79814)"><path
           d="m 8573.3,16236.6 c 42.15,-63.4 -34.59,-185.6 -171.51,-272.9 -136.92,-87.4 -282.02,-106.8 -324.22,-43.5 -42.16,63.5 34.7,185.7 171.56,273 136.92,87.4 282.01,106.8 324.17,43.4"
           style="fill:#bfcfd9;fill-opacity:1;fill-rule:nonzero;stroke:none"
           id="path208" /></g><g
         id="g210"
         transform="scale(1.88675)"><path
           d="m 13983.3,15043.1 c 83.6,-727.1 -389,-1376.1 -1055.5,-1449.5 -666.4,-73.5 -1274.3,456.4 -1357.9,1183.4 -83.5,727.1 389,1376.1 1055.4,1449.5 666.5,73.5 1274.5,-456.4 1358,-1183.4"
           style="fill:#5e5475;fill-opacity:1;fill-rule:nonzero;stroke:none"
           id="path212" /></g><g
         id="g214"
         transform="scale(1.88837)"><path
           d="m 12737.4,16206.2 c -40.2,0 -80.7,-2.2 -121.4,-6.7 -298.8,-32.9 -570.7,-185.7 -765.7,-430.1 -218,-273.3 -319,-639.1 -277.1,-1003.5 82.5,-718 684.6,-1243.2 1342.1,-1170.8 298.8,32.9 570.7,185.6 765.7,430.1 218,273.3 319.1,639.1 277.2,1003.5 -77.4,673.6 -612.1,1177.5 -1220.8,1177.5 m 56.5,-2644.3 c -622,0 -1168.1,513.9 -1247,1201 -42.7,371.3 60.4,744.3 282.7,1023 199.4,250 477.6,406.2 783.5,439.9 671.8,74.2 1287.3,-461.6 1371.4,-1194.1 42.6,-371.4 -60.4,-744.2 -282.8,-1023 -199.4,-250 -477.6,-406.2 -783.5,-439.9 -41.7,-4.6 -83.2,-6.9 -124.3,-6.9"
           style="fill:#0f227a;fill-opacity:1;fill-rule:nonzero;stroke:none"
           id="path216" /></g><g
         id="g218"
         transform="scale(1.89631)"><path
           d="m 11741.7,15390.7 c 0,0 233.1,852 1568.6,504.7 0,0 -487,404.6 -957.9,226.3 -470.9,-178.3 -610.7,-731 -610.7,-731"
           style="fill:#bfcfd9;fill-opacity:1;fill-rule:nonzero;stroke:none"
           id="path220" /></g><g
         id="g222"
         transform="scale(1.812)"><path
           d="m 14322.8,14985.9 c -469.3,593.4 -1153.7,1050.2 -1955.6,1286.3 5.3,8.5 11.1,17.1 17.1,26 393.4,-28.6 1196.1,-205.9 1851.7,-1095.6 0,0 131.5,344.4 134.7,812.4 45.5,-113 76.9,-234.6 91.7,-362.6 17.1,-149.1 9.9,-298.4 -19.8,-441.2 -47.2,-68.9 -86.8,-144.7 -119.8,-225.3 m -1972.7,1291.3 c -2.3,0.7 -4.8,1.4 -7.1,2 4.4,7 9,13.9 13.6,20.8 1.2,-0.1 2.5,-0.2 3.8,-0.2 -3.6,-7.7 -7,-15.3 -10.3,-22.6"
           style="fill:#464577;fill-opacity:1;fill-rule:nonzero;stroke:none"
           id="path224" /></g><g
         id="g226"
         transform="scale(1.81198)"><path
           d="m 12367.3,16272.4 c -5.6,1.7 -11.4,3.4 -17,5 3.2,7.4 6.7,14.9 10.2,22.6 7.8,-0.5 15.8,-1 23.9,-1.6 -6,-8.8 -11.7,-17.5 -17.1,-26"
           style="fill:#8a9bbc;fill-opacity:1;fill-rule:nonzero;stroke:none"
           id="path228" /></g><g
         id="g230"
         transform="scale(1.8983)"><path
           d="m 12670.8,16040.6 c -37.1,0 -74.4,-2.1 -112,-6.2 -275.7,-30.4 -526.8,-171.7 -707.2,-397.9 -203.6,-255.2 -297.9,-597.4 -258.7,-938.6 77,-670.2 635.9,-1160.8 1246,-1093.6 275.7,30.4 526.9,171.7 707.3,397.9 203.6,255.2 297.9,597.3 258.7,938.6 -72.3,629 -569.1,1099.8 -1134.1,1099.8 m 56.2,-2630.5 c -659.3,0 -1237.6,541.7 -1320.8,1266.3 -44.9,390.7 63.9,783.3 298.4,1077.3 211.8,265.6 507.9,431.7 833.6,467.6 712.6,78.7 1364.6,-486.3 1453.4,-1259 44.9,-390.6 -63.9,-783.3 -298.4,-1077.3 -211.8,-265.6 -507.9,-431.6 -833.7,-467.6 -44.5,-4.9 -88.7,-7.3 -132.5,-7.3"
           style="fill:#0f227a;fill-opacity:1;fill-rule:nonzero;stroke:none"
           id="path232" /></g><g
         id="g234"
         transform="scale(1.81775)"><path
           d="m 14403.9,11530.7 c 184.1,269.3 307.5,548.4 355.2,819.6 59.6,228.8 91.3,466.7 91.3,711 0,1788.7 -1686.4,3238.7 -3766.7,3238.7 -2018.42,0 -3665.9,-1365 -3762.22,-3079.9 -163.72,-262.9 -246.63,-593.4 -230.02,-1008.2 65.47,-1634.6 1878.98,-2403.89 3894.04,-2403.89 184.9,0 367.7,13.1 547.4,37.58 1244.6,127.24 2302.8,776.01 2871,1685.11"
           style="fill:#fef2f4;fill-opacity:1;fill-rule:nonzero;stroke:none"
           id="path236" /></g><g
         id="g238"
         transform="scale(1.81928)"><path
           d="m 11074.3,16272.5 c -2003.63,0 -3648.79,-1346 -3745.26,-3064.3 l -0.22,-3.5 -1.86,-3 c -166.94,-268.1 -243.56,-604.4 -227.73,-999.6 70.58,-1763 2132.65,-2388.61 3877.07,-2388.61 179.6,0 363,12.58 545.1,37.43 1211.2,123.84 2279.7,750.88 2858.7,1677.28 l 0.2,0.5 c 187.4,274 306.1,547.7 352.8,813.6 60.5,232.2 91,470.1 91,708 0,1776.8 -1682.1,3222.2 -3749.8,3222.2 m -98,-6486.5 c -1045.35,0 -1998.03,209.59 -2682.59,590.2 -768.71,427.3 -1191.24,1058.4 -1221.97,1824.8 -15.94,399.4 61.46,739.9 230.04,1012.2 99.32,1731.2 1755.64,3086.8 3772.52,3086.8 2082.8,0 3777.3,-1457.8 3777.3,-3249.7 0,-240.2 -30.8,-480.5 -91.7,-713.9 -47.1,-268.6 -167.2,-545.8 -356.7,-823 -583.5,-933.5 -1659.5,-1565.13 -2878.5,-1689.75 -182.9,-24.95 -367.6,-37.65 -548.4,-37.65"
           style="fill:#0f227a;fill-opacity:1;fill-rule:nonzero;stroke:none"
           id="path240" /></g><g
         id="g242"
         transform="scale(1.53307)"><path
           d="m 14107.3,15422.7 c 32.2,-544.8 -522.8,-1095.6 -1292.8,-1139.3 -770.2,-43.6 -1420.6,362.5 -1452.8,907.3 -32.2,544.8 565.9,1021.9 1336.1,1065.6 770.1,43.7 1377.3,-288.8 1409.5,-833.6"
           style="fill:#b9bcbb;fill-opacity:1;fill-rule:nonzero;stroke:none"
           id="path244" /></g><g
         id="g246"
         transform="scale(1.64577)"><path
           d="m 12133.5,10954.5 c -996.6,0 -1948.5,170.3 -2702.46,520.5 -796.28,378.8 -1386.04,979.6 -1479.24,1866 287.58,-695.5 1215.11,-2139.2 3961,-2139.1 25.2,0 50.7,0.1 76.1,0.4 1981.6,19 3092.2,822.6 3702.4,1664.4 214.8,296.3 252.1,686.3 92.2,1015.5 -180.1,370.5 -288.8,850.8 -288.8,1375.9 0,378.7 56.7,734 155.8,1041.9 12.8,-17.1 25.4,-34.1 37.8,-51.3 -88.2,-352 -93.6,-746.9 -73.5,-1072.4 47.7,-769.6 243.1,-1309.4 565.4,-1589 -57.1,-258.1 -178.2,-523.7 -360.6,-790.5 -0.9,-1.2 -1.7,-2.5 -2.5,-3.7 -352.7,-564.3 -874.2,-1025.8 -1497.1,-1344.8 -475.8,-236.3 -1011.1,-393.9 -1581.9,-452.3 -198.5,-27.1 -400.4,-41.5 -604.6,-41.5"
           style="fill:#b6b3cf;fill-opacity:1;fill-rule:nonzero;stroke:none"
           id="path248" /></g><g
         id="g250"
         transform="scale(1.82869)"><path
           d="m 11017.3,16104.9 c -1948.86,0 -3548.69,-1304.3 -3642.2,-2969.5 -0.93,-16.3 -5.96,-32.2 -14.6,-46.1 -159.24,-255.7 -229.23,-565.3 -213.98,-946.6 67.87,-1694.5 2075.04,-2295.83 3773.28,-2295.83 174.8,0 353.5,12.3 530.9,36.53 1.1,0.11 2.2,0.27 3.3,0.38 1179,120.42 2218.6,729.72 2780.9,1629.62 0.7,1.1 1.4,2.3 2.2,3.3 179.6,262.6 293.2,523.9 337.6,776.6 0.4,2.6 1,5.2 1.7,7.7 58,223.1 87.5,452.6 87.5,682.2 0,1721.2 -1635.8,3121.7 -3646.6,3121.7 m -97.5,-6453.2 c -1054.01,0 -2016.23,212.29 -2709.57,597.8 -791.71,440.1 -1226.94,1092.1 -1258.71,1885.4 -16.24,405.5 61.19,753.9 230.22,1036.1 113.47,1756.7 1792.76,3129 3835.56,3129 2118.4,0 3841.8,-1487.9 3841.8,-3316.8 0,-244.9 -31.2,-489.7 -92.9,-727.6 -49.6,-278.5 -173,-563.5 -366.8,-847.3 -594.1,-949.3 -1686.9,-1591.62 -2923.9,-1718.54 -185.6,-25.21 -372.5,-38.06 -555.7,-38.06"
           style="fill:#0f227a;fill-opacity:1;fill-rule:nonzero;stroke:none"
           id="path252" /></g><g
         id="g254"
         transform="scale(1.67955)"><path
           d="m 14377.1,15453.8 c 339.4,-591.8 204.9,-1297.1 -300.6,-1575.2 -505.5,-278.1 -1190.5,-23.8 -1529.9,568 -339.4,591.9 -204.9,1297.1 300.6,1575.2 505.5,278.2 1190.5,23.8 1529.9,-568"
           style="fill:#5e5475;fill-opacity:1;fill-rule:nonzero;stroke:none"
           id="path256" /></g><g
         id="g258"
         transform="scale(1.66431)"><path
           d="m 9074.2,15268.9 c -220.16,-650.3 51.67,-1323.6 606.91,-1503.9 555.39,-180.5 1183.99,200.5 1404.09,850.6 220.2,650.3 -51.5,1323.7 -606.9,1504 -555.35,180.4 -1183.95,-200.5 -1404.1,-850.7"
           style="fill:#5e5475;fill-opacity:1;fill-rule:nonzero;stroke:none"
           id="path260" /></g><g
         id="g262"
         transform="scale(1.57195)"><path
           d="m 11470.5,15758.8 c 13,-302.8 -152.4,-555.7 -369.6,-564.7 -217.2,-9 -403.8,229.3 -416.9,532.2 -13,302.9 152.5,555.8 369.7,564.7 217.1,9 403.7,-229.3 416.8,-532.2"
           style="fill:#0f227a;fill-opacity:1;fill-rule:nonzero;stroke:none"
           id="path264" /></g><g
         id="g266"
         transform="scale(1.57355)"><path
           d="m 11054.2,16258.8 c -3.7,0 -7.4,0 -11.1,-0.2 -78.4,-3.3 -152.1,-40.1 -213.2,-106.7 -95.7,-104 -148.3,-268.8 -140.8,-440.9 12.5,-293.4 191.2,-525.2 399.8,-516.5 78.4,3.3 152.1,40.1 213.2,106.7 95.6,103.9 148.2,268.8 140.9,440.9 -12.5,288.1 -185.7,516.7 -388.8,516.7 z m 23.6,-1096.2 c -220,0 -407.4,241.9 -420.5,547 -7.8,180.4 48,353.7 149.2,463.8 66.9,72.9 148.3,113.3 235.3,116.9 225.8,9.7 419.5,-236 432.9,-546.8 7.7,-180.4 -48.1,-353.7 -149.2,-463.9 -67,-72.8 -148.3,-113.2 -235.2,-116.8 -4.2,-0.2 -8.4,-0.2 -12.5,-0.2"
           style="fill:#0f227a;fill-opacity:1;fill-rule:nonzero;stroke:none"
           id="path268" /></g><g
         id="g270"
         transform="scale(1.55619)"><path
           d="m 11528.3,16037 c 6.3,-147.2 -69.7,-269.8 -169.9,-274 -100.1,-4.1 -186.4,111.7 -192.7,258.9 -6.4,147.2 69.7,269.8 169.8,273.9 100.2,4.2 186.5,-111.7 192.8,-258.8"
           style="fill:#ffffff;fill-opacity:1;fill-rule:nonzero;stroke:none"
           id="path272" /></g><g
         id="g274"
         transform="scale(1.55774)"><path
           d="m 11329.4,16263.7 c -1.5,0 -3,-0.1 -4.5,-0.2 -32.2,-1.2 -62.8,-16.8 -88.7,-45 -44.7,-48.6 -69.3,-127.8 -65.6,-211.8 5.9,-137.9 85.2,-246.8 175.9,-243.4 32.1,1.4 62.8,16.9 88.6,45 44.8,48.7 69.3,127.9 65.7,212 -5.8,135.6 -82.2,243.4 -171.4,243.4 z m 12.7,-532.5 c -106.3,0 -197,121.3 -203.6,274.1 -4,92.4 23.7,180.2 74.1,235 31.7,34.5 70.1,53.7 111,55.3 108,4.4 202.6,-118.4 209.2,-273.9 4,-92.4 -23.6,-180.3 -74,-235.1 -31.7,-34.5 -70.1,-53.6 -111,-55.3 -1.9,-0.1 -3.9,-0.1 -5.7,-0.1"
           style="fill:#0f227a;fill-opacity:1;fill-rule:nonzero;stroke:none"
           id="path276" /></g><g
         id="g278"
         transform="scale(1.58875)"><path
           d="m 13625.5,15732.4 c -12.9,299.7 150.9,549.8 365.8,558.7 214.8,8.9 399.5,-226.9 412.4,-526.6 12.9,-299.6 -150.8,-549.8 -365.7,-558.7 -214.9,-8.9 -399.6,226.9 -412.5,526.6"
           style="fill:#0f227a;fill-opacity:1;fill-rule:nonzero;stroke:none"
           id="path280" /></g><g
         id="g282"
         transform="scale(1.59029)"><path
           d="m 13628,15717.7 c 12.5,-290.2 189.3,-519.5 395.7,-511 77.5,3.3 150.4,39.7 211,105.6 94.5,102.9 146.6,265.9 139.3,436.2 -12.5,290.3 -189.3,519.7 -395.7,511.1 -77.5,-3.2 -150.4,-39.7 -210.9,-105.5 -94.6,-103 -146.7,-266 -139.4,-436.4 z m 384.7,-542.6 c -217.7,0 -403.1,239.4 -416.1,541.3 -7.7,178.5 47.5,350 147.6,459 66.3,72 146.8,112 232.8,115.5 223.4,9.1 415.1,-233.5 428.4,-541.1 7.7,-178.3 -47.5,-349.9 -147.6,-458.8 -66.3,-72.1 -146.8,-112.1 -232.8,-115.6 -4.1,-0.2 -8.2,-0.3 -12.3,-0.3"
           style="fill:#0f227a;fill-opacity:1;fill-rule:nonzero;stroke:none"
           id="path284" /></g><g
         id="g286"
         transform="scale(1.57814)"><path
           d="m 13988,16025.8 c -6.2,145.1 68.8,266 167.4,270.1 98.8,4.1 184,-110.2 190.2,-255.4 6.3,-145.1 -68.7,-266 -167.5,-270 -98.7,-4.1 -183.9,110.1 -190.1,255.3"
           style="fill:#ffffff;fill-opacity:1;fill-rule:nonzero;stroke:none"
           id="path288" /></g><g
         id="g290"
         transform="scale(1.5797)"><path
           d="m 13989.9,16010.6 c 5.9,-136 83.2,-243.2 173.5,-239.9 31.7,1.3 62,16.6 87.5,44.3 44,48 68.3,126.1 64.7,209 -5.9,136 -83.3,243.3 -173.5,239.9 -31.7,-1.2 -62,-16.6 -87.4,-44.3 -44.1,-48 -68.3,-126.2 -64.8,-209 z m 169.1,-271.7 c -104.7,0 -194.2,119.6 -200.7,270.3 -3.9,91.1 23.4,177.7 73.1,231.8 31.3,34.1 69.1,52.9 109.4,54.6 107,4.4 199.8,-116.8 206.4,-270.3 3.9,-91 -23.4,-177.7 -73,-231.7 -31.4,-34 -69.2,-52.9 -109.5,-54.6 -1.9,-0.1 -3.8,-0.1 -5.7,-0.1"
           style="fill:#0f227a;fill-opacity:1;fill-rule:nonzero;stroke:none"
           id="path292" /></g><g
         id="g294"
         transform="scale(1.54267)"><path
           d="m 13972.2,15324.8 c 23.8,-552.3 -560.4,-1025 -1305,-1055.8 -744.4,-30.8 -1367.2,392.1 -1391,944.4 -23.8,552.4 560.5,1025.1 1304.9,1055.9 744.6,30.7 1367.3,-392.1 1391.1,-944.5"
           style="fill:#fef2f4;fill-opacity:1;fill-rule:nonzero;stroke:none"
           id="path296" /></g><g
         id="g298"
         transform="scale(1.52845)"><path
           d="m 13147.7,16081.2 c 12.6,-291.7 -233.6,-457.8 -545.4,-470.7 -311.9,-12.8 -571.5,132.4 -584.1,424.1 -9.4,218.8 1120.1,265.4 1129.5,46.6"
           style="fill:#0f227a;fill-opacity:1;fill-rule:nonzero;stroke:none"
           id="path300" /></g><g
         id="g302"
         transform="scale(1.50659)"><path
           d="m 12731.4,15390.3 c -42,0 -77,33.1 -78.8,75.6 l -32.7,749.7 c -1.9,43.6 31.9,80.4 75.5,82.3 43.3,2.1 80.4,-31.8 82.3,-75.4 l 32.7,-749.7 c 1.9,-43.6 -31.9,-80.5 -75.5,-82.3 -1.2,-0.1 -2.3,-0.2 -3.5,-0.2"
           style="fill:#0f227a;fill-opacity:1;fill-rule:nonzero;stroke:none"
           id="path304" /></g><g
         id="g306"
         transform="scale(1.07547)"><path
           d="m 15636.3,14464.7 c 0,0 -1825.2,1408.5 -2654.8,108.3 -354.1,-555.1 -608.4,-2329.5 497.8,-2871.2 0,0 55.3,-1083.4 719,-1191.8 663.7,-108.4 1548.6,1137.7 1548.6,1571.1 0,0 553.1,216.6 553.1,975.1 0,758.4 -663.7,1408.5 -663.7,1408.5"
           style="fill:#5e5475;fill-opacity:1;fill-rule:nonzero;stroke:none"
           id="path308" /></g><g
         id="g310"
         transform="scale(1.077)"><path
           d="m 13954.8,15079.2 c -74.8,0 -149,-5.9 -221.9,-18.6 -312.1,-54.5 -564.6,-229.7 -750.3,-520.9 -220.5,-345.5 -417.5,-1210.5 -213.9,-1935.6 119.7,-426.6 355.8,-728.7 701.6,-898.1 l 12.3,-6 0.7,-13.6 c 0.5,-10.6 62,-1064.6 698.5,-1168.4 260.1,-42.5 535,135.8 719.8,292.9 443,376.5 799.7,993.3 799.7,1253 v 15.8 l 14.7,5.7 c 5.4,2.2 537.6,220.5 537.6,952.2 0,725.4 -626.2,1360.4 -654.8,1389 -35.7,27 -868.7,652.6 -1644,652.6 m 306,-4613.9 c -29.5,0 -58.3,2.3 -86.4,6.8 -640.6,104.6 -727.7,1065.8 -736.6,1198.3 -351.6,176.5 -591.7,486.2 -713.8,921.1 -207.3,738.2 -5.7,1620.3 219.5,1973.3 193,302.5 455.9,484.8 781.5,541.6 861.7,150.1 1892.9,-636 1903.2,-643.9 l 2.1,-1.9 c 6.7,-6.5 669.7,-664.7 669.7,-1423 0,-695.1 -464.3,-947.3 -552.6,-988.9 -12.6,-282.2 -364.4,-889.6 -815.7,-1273.2 -240.4,-204.3 -470.2,-310.2 -670.9,-310.2"
           style="fill:#0f227a;fill-opacity:1;fill-rule:nonzero;stroke:none"
           id="path312" /></g><path
         d="m 13740.3,13848.3 c -11,4.8 -20.9,11 -31.4,16.4 -87.6,689.3 90.5,1426.3 302.3,1758.1 281.7,441.6 670.2,592.6 1069.9,592.6 302.4,0 611.3,-86.5 885.3,-199.1 -67.2,3.6 -132.4,5.4 -195.6,5.4 -597.3,0 -1020,-156.9 -1319.1,-386.2 25.1,-3.2 47.7,-11.6 66.5,-26.4 90.7,-71.7 58.5,-258.4 -72.1,-416.9 -95.9,-116.4 -218.1,-185.3 -312.2,-185.3 -34.1,0 -64.5,9.1 -88.6,28.2 -21.2,16.7 -35.4,39.8 -43.5,67.2 -320.2,-592.9 -261.5,-1254 -261.5,-1254"
         style="fill:#bfbbc8;fill-opacity:1;fill-rule:nonzero;stroke:none"
         id="path314" /><path
         d="m 14738.9,11657.4 c -88.7,91.4 -157.5,204.2 -210.9,322.1 21.7,-13.5 47.4,-28.1 76.9,-42.6 34.9,-95.6 78.8,-191.4 134,-279.5"
         style="fill:#93b0d7;fill-opacity:1;fill-rule:nonzero;stroke:none"
         id="path316" /><g
         id="g318"
         transform="scale(1.06626)"><path
           d="m 14264.3,10734.7 c -28.3,0 -56.5,2.1 -84.1,6.7 -74.7,12.2 -141.7,36.6 -201.9,70.4 -94.9,99.2 -165,225.7 -216.8,354.9 81.8,-32 184.8,-57.8 305.8,-57.8 262.3,0 608.8,121.2 1005.4,561.4 836.8,928.9 130.5,2013.7 130.5,2013.7 0,0 222.8,-323.5 474.9,-323.4 164.5,0 341.5,137.7 477.3,592.6 84.2,-195 144.6,-414.3 144.6,-643.6 0,-765.1 -557.8,-983.6 -557.8,-983.6 0,-419.1 -820.3,-1591.4 -1477.9,-1591.3"
           style="fill:#464577;fill-opacity:1;fill-rule:nonzero;stroke:none"
           id="path320" /></g><path
         d="m 14904.6,11528.2 c -61.8,34.7 -116.8,78.7 -165.7,129.2 -55.2,88.1 -99.1,183.9 -134,279.5 20.9,-10.3 43.8,-20.5 68.5,-30.2 55.2,-137.8 130,-272.7 231.2,-378.5"
         style="fill:#0f227a;fill-opacity:1;fill-rule:nonzero;stroke:none"
         id="path322" /><g
         id="g324"
         transform="scale(1.08641)"><path
           d="m 14081.4,14831.2 c -386.6,0 -761.7,-175.5 -1115.7,-522.3 -222.1,-217.5 -391.5,-816.7 -290.6,-1442.9 50.5,-312.9 213.8,-876.5 740.6,-1134.5 53.7,-26.3 88.8,-79.6 91.9,-139.2 0.5,-9.2 64.4,-942.8 574.1,-1026 160,-26.2 372.5,65.8 599.3,258.5 431.1,366.4 743,932 743,1134.5 0,67.6 41.4,128.3 104.4,153 16.8,7 443.2,190 443.2,812.4 0,670.8 -601.8,1271.1 -607.9,1277.1 -2.9,2.9 -6,6.1 -8.6,9.2 -7.2,8.1 -528.5,592.7 -1224.8,619.3 -16.3,0.6 -32.7,0.9 -48.9,0.9 z m 55.2,-4597.8 c -36.6,0 -72.5,2.9 -107.8,8.7 -658.1,107.3 -808.7,950 -841.1,1238.5 -442.6,252.6 -738.5,722.1 -836.9,1333.2 -109.1,676.9 52.8,1404.4 385,1729.8 436.9,427.9 912,634.9 1410,614.8 812.1,-32.4 1392,-658.7 1452.5,-726.7 66,-66 701.7,-722 701.7,-1507 0,-662.2 -376.7,-963.9 -557.7,-1070.6 -65.3,-362.4 -433.8,-927.1 -848.5,-1279.6 -264.3,-224.7 -523.7,-341.1 -757.2,-341.1"
           style="fill:#0f227a;fill-opacity:1;fill-rule:nonzero;stroke:none"
           id="path326" /></g><g
         id="g328"
         transform="scale(1.45158)"><path
           d="m 13265.8,15927.2 c -389.5,0 -628.2,191.3 -643.1,203.6 -34.9,28.8 -39.9,80.4 -11.1,115.3 28.7,34.9 80.2,39.9 115.1,11.3 19.3,-15.7 479.7,-377.8 1178.5,20.1 39.3,22.5 89.4,8.7 111.8,-30.6 22.4,-39.4 8.6,-89.4 -30.7,-111.8 -274.1,-156.1 -517.7,-207.9 -720.5,-207.9"
           style="fill:#0f227a;fill-opacity:1;fill-rule:nonzero;stroke:none"
           id="path330" /></g><g
         id="g332"
         transform="scale(1.05096)"><path
           d="m 15390.2,13991.5 c 153.8,-57.4 288.2,-152.6 408.5,-265.7 118.8,-114.3 223,-248.2 302.3,-396.9 20.9,-36.7 36.7,-75.6 55.2,-113.7 l 26.8,-57.7 c 7.5,-19.7 14,-39.7 21.1,-59.6 13.8,-40 27.6,-80.1 39.7,-120.7 l 26.4,-123.7 c 4.1,-20.6 9,-41.3 12.5,-62.1 l 5.9,-62.6 c 4.2,-41.7 7.1,-83.5 9.4,-125.4 2,-83.5 -5.2,-166.6 -14.4,-248.9 -10.3,-93 -94.1,-160.1 -187,-149.7 -78.6,8.8 -138.7,69.8 -149.1,144.7 l -3.1,21.4 c -10.1,72.1 -10.8,143.4 -15.8,213.9 -10.6,69.7 -8.5,141.3 -22,209.8 l -14.1,104.3 -20.4,102.9 -9.6,52 -13.6,50.8 c -9.6,33.6 -16.7,68.8 -28.5,102 -42.7,135 -102.8,265.7 -178.2,391 -74.7,125.5 -167.2,246 -275.7,351.6 l -1.9,1.9 c -9.7,9.4 -10,24.9 -0.6,34.5 7,7.3 17.3,9.2 26.2,5.9"
           style="fill:#0f227a;fill-opacity:1;fill-rule:nonzero;stroke:none"
           id="path334" /></g><g
         id="g336"
         transform="scale(1.33603)"><path
           d="m 16296.5,8011.72 c -55.5,-96.86 -132.6,-178.14 -223.4,-247.75 -91.4,-68.12 -199.9,-120.66 -318.4,-146.55 l -44.7,-9.89 c -14.9,-2.46 -30.2,-3.36 -45.4,-5.01 -30.4,-2.1 -61.4,-7.78 -92.1,-5.61 -30.6,1.42 -61.4,3.74 -92.2,6.28 -15.8,0.53 -30.4,4.79 -45.3,7.94 l -44.8,10.55 c -29.9,7.19 -59.9,14.52 -87.1,27.39 -27.9,11.31 -55.5,23.58 -82.8,36.38 -28.3,11.31 -50.8,30.54 -76.1,45.88 -24.3,16.7 -48.4,33.61 -71.3,51.8 -57.5,45.73 -67.1,129.34 -21.4,186.9 36.3,45.73 96.7,61.15 148.8,42.51 l 21.9,-7.86 c 44.1,-15.87 83.7,-39.44 124.5,-57.18 41.6,-14.15 80.6,-37.13 122.5,-46.48 81.6,-29.2 166.1,-44.24 254.8,-44.76 88.5,-0.3 181.2,15.49 272.9,47.45 91.8,31.36 183.9,77.1 270.7,132.93 l 1.6,1.05 c 9,5.76 21,3.14 26.8,-5.84 4,-6.28 4,-14.07 0.5,-20.13"
           style="fill:#0f227a;fill-opacity:1;fill-rule:nonzero;stroke:none"
           id="path338" /></g><g
         id="g340"
         transform="scale(1.83122)"><path
           d="m 16245.2,13787.2 c 54.8,-885.7 -440.1,-1635.8 -1105.4,-1675.3 -665.3,-39.5 -954.2,647.7 -1009.1,1533.4 -54.8,885.8 145.2,1634.6 810.5,1674.1 665.3,39.5 1249.1,-646.5 1304,-1532.2"
           style="fill:#f9195a;fill-opacity:1;fill-rule:nonzero;stroke:none"
           id="path342" /></g><g
         id="g344"
         transform="scale(1.7041)"><path
           d="m 15459.3,13764.3 c -109.9,296.4 -153.6,640.2 -170,905.5 -41.9,677.6 65.3,1197.8 301.9,1465 64.8,73.2 138.4,128 222,165.2 -161.6,-160.8 -359.9,-469.4 -428.2,-1042.2 -73.9,-621 7.1,-1176.2 74.3,-1493.5"
           style="fill:#fda3bd;fill-opacity:1;fill-rule:nonzero;stroke:none"
           id="path346" /></g><g
         id="g348"
         transform="scale(1.75536)"><path
           d="m 15740.1,12735.4 c -183.7,0 -330.4,64.9 -447.5,170.9 39,-6.9 77.4,-9.8 114.2,-9.8 179.3,0 322.4,67.5 322.4,67.5 -658.1,759 -588.4,1827.2 -356.8,2472.7 90,250.9 249.3,375.3 410.5,433.6 58.8,-9.6 116.4,-25.1 172.7,-46.2 -126.4,-29.2 -234.7,-94.1 -322.8,-193.6 -211.7,-239 -299.6,-673.1 -261.4,-1290.4 71.3,-1152.1 484.4,-1407.5 836.3,-1407.5 15,0 29.9,0.4 44.6,1.3 16,1 31.9,2.4 47.7,4.3 -154.1,-121.5 -328.1,-190.4 -511.9,-201.4 -16.3,-0.9 -32.3,-1.4 -48,-1.4"
           style="fill:#b21c64;fill-opacity:1;fill-rule:nonzero;stroke:none"
           id="path350" /></g><g
         id="g352"
         transform="scale(1.83971)"><path
           d="m 14926.8,15153.4 c -16.2,0 -32.5,-0.5 -48.8,-1.5 -179.9,-10.7 -322.6,-78.2 -436.1,-206.5 -219.2,-247.4 -318.4,-729.4 -279.6,-1357 34.3,-554.1 196.7,-1477.4 901.9,-1435.6 235.5,14 454.4,127.9 632.8,329.3 265,299.3 405.7,761.2 376.4,1235.5 -49.9,804.7 -559.1,1435.8 -1146.6,1435.8 m 88.7,-3196 c -611.1,0 -982,571.7 -1046.8,1619 -29.8,480.6 2.9,1130.7 327.9,1497.6 147.5,166.5 339.2,257.9 569.9,271.5 714.2,42.2 1342.7,-682.4 1400.5,-1615.9 33,-532.5 -121.9,-1034 -424.8,-1376.1 -213.3,-240.8 -478.4,-377.2 -766.5,-394.3 -20.4,-1.2 -40.4,-1.8 -60.2,-1.8"
           style="fill:#0f227a;fill-opacity:1;fill-rule:nonzero;stroke:none"
           id="path354" /></g><g
         id="g356"
         transform="scale(1.84621)"><path
           d="m 16256,13732.1 c 44,-709.9 -318.4,-1309 -809.3,-1338.2 -490.9,-29.2 -691.3,536.5 -735.3,1246.5 -43.9,709.9 85.2,1295.2 576.2,1324.4 490.9,29.2 924.5,-522.7 968.4,-1232.7"
           style="fill:#f4cb00;fill-opacity:1;fill-rule:nonzero;stroke:none"
           id="path358" /></g><g
         id="g360"
         transform="scale(1.81544)"><path
           d="m 15673.6,12701.2 c -446.9,0 -581.3,636.3 -614.7,1176.4 -15.9,257.5 -8,479.6 23.2,661.6 19.1,-312.2 123,-1612.9 532.6,-1701.6 31.9,-6.9 63.4,-10.1 94.4,-10.1 250.7,0 467.5,210 590.9,360.9 -45.2,-97 -100.8,-184.1 -165.9,-257.6 -124.3,-140.2 -273.4,-219.3 -431.4,-228.7 -9.8,-0.6 -19.5,-0.9 -29.1,-0.9"
           style="fill:#af9825;fill-opacity:1;fill-rule:nonzero;stroke:none"
           id="path362" /></g><g
         id="g364"
         transform="scale(1.83221)"><path
           d="m 16154.5,13075.7 c 64.3,207 73.8,473.2 39,734 22.9,58 28.2,140.3 10.2,227.8 -20.6,100.4 -66.9,182.9 -119.6,224.1 -54.6,148.8 -125.1,278.9 -208.6,372.8 -150.3,169.2 -332.5,217.3 -491.4,217.3 -120.3,0 -227.3,-27.6 -296.8,-51.3 11.3,16.2 23.2,31.3 35.6,45.3 74.9,84.6 168.9,129.2 287.2,136.2 10.8,0.7 21.4,0.9 32.1,0.9 427.2,0 800.9,-507.1 840.8,-1151.7 17,-274.2 -29.7,-539.2 -128.5,-755.4"
           style="fill:#fbea99;fill-opacity:1;fill-rule:nonzero;stroke:none"
           id="path366" /></g><g
         id="g368"
         transform="scale(1.85529)"><path
           d="m 15250.1,14796.5 c -10.5,0 -21,-0.3 -31.7,-1 -116.9,-6.9 -209.6,-50.9 -283.6,-134.4 -162.9,-183.9 -231.8,-557.8 -199.4,-1081.5 33.5,-539.9 169.9,-1177.9 630,-1150.3 154.6,9.1 300.6,86.5 422.2,223.8 207.8,234.7 317.3,610.8 292.9,1005.9 -39.4,636.6 -408.5,1137.5 -830.4,1137.5 m 84.6,-2560.5 c -333,0 -723.8,241.7 -791.2,1331.7 -36.2,584 47,994.8 247.2,1220.9 108.1,122 248.2,189 416.4,199 540.5,32.5 1018.4,-558.6 1065.4,-1316.7 27.5,-445 -99.9,-873.2 -340.9,-1145.4 -156.2,-176.3 -348,-276 -554.7,-288.3 -14,-0.8 -28,-1.2 -42.2,-1.2"
           style="fill:#0f227a;fill-opacity:1;fill-rule:nonzero;stroke:none"
           id="path370" /></g><g
         id="g372"
         transform="scale(1.82023)"><path
           d="m 16201.1,13816 c -79,0 -162.8,108.4 -192.8,254.2 -32.1,155.9 9.5,295.8 92.9,312.2 5.4,1.1 10.9,1.6 16.4,1.6 24.2,0 48.9,-10.2 72.4,-28.6 51.4,-140 88.8,-296.4 110,-454.9 -17.8,-45.1 -46.2,-75.7 -82.6,-82.9 -5.4,-1.1 -10.9,-1.6 -16.3,-1.6"
           style="fill:#fbea99;fill-opacity:1;fill-rule:nonzero;stroke:none"
           id="path374" /></g><g
         id="g376"
         transform="scale(1.82341)"><path
           d="m 16271.6,13876.3 c -21.1,158.2 -58.5,314.3 -109.9,454.1 52.9,-41.4 99.5,-124.3 120.2,-225.2 18.1,-87.8 12.8,-170.5 -10.3,-228.9"
           style="fill:#fdf7d6;fill-opacity:1;fill-rule:nonzero;stroke:none"
           id="path378" /></g><g
         id="g380"
         transform="scale(1.69991)"><path
           d="m 16225.9,16038.8 c -2.8,0 -5.7,0.1 -8.6,0.5 l -279.8,34.2 c -38.4,4.7 -65.8,39.6 -61.1,78 4.8,38.4 39.8,65.6 78.1,61 l 279.8,-34.3 c 38.4,-4.7 65.7,-39.6 61.1,-78 -4.4,-35.4 -34.6,-61.4 -69.5,-61.4"
           style="fill:#0f227a;fill-opacity:1;fill-rule:nonzero;stroke:none"
           id="path382" /></g><g
         id="g384"
         transform="scale(1.66664)"><path
           d="m 16228.6,14960.7 h -142.7 c -39.5,0 -71.4,31.9 -71.4,71.4 0,39.4 31.9,71.3 71.4,71.3 h 142.7 c 39.4,0 71.4,-31.9 71.4,-71.3 0,-39.5 -32,-71.4 -71.4,-71.4"
           style="fill:#0f227a;fill-opacity:1;fill-rule:nonzero;stroke:none"
           id="path386" /></g><g
         id="g388"
         transform="scale(1.71043)"><path
           d="m 16160.9,13455.2 z m 0,-0.1 v -0.1 z m -173.9,-103.7 c -38.4,0 -69.5,31.1 -69.5,69.5 0,38.4 31.1,69.6 69.5,69.6 78,0 162,5.9 193.9,13.3 12.6,12.8 30.2,20.8 49.5,20.8 38.4,0 69.6,-31.2 69.6,-69.6 0,-78.5 -76.1,-103.6 -313,-103.6"
           style="fill:#0f227a;fill-opacity:1;fill-rule:nonzero;stroke:none"
           id="path390" /></g><g
         id="g392"
         transform="scale(1.64534)"><path
           d="m 7363.84,15853 c -12.89,0 -24.8,2.8 -35.37,8.9 -35.86,20.2 -47.83,71.9 -37.08,135.4 58.17,103.2 126.66,202.5 207.25,291.9 16.66,7 32.7,10.8 47.47,10.8 12.89,0 24.86,-2.9 35.38,-8.8 60.53,-34.3 52.93,-158.1 -16.96,-276.7 -57.68,-97.8 -139.73,-161.5 -200.69,-161.5"
           style="fill:#fbea99;fill-opacity:1;fill-rule:nonzero;stroke:none"
           id="path394" /></g><g
         id="g396"
         transform="scale(1.64425)"><path
           d="m 7296.24,16007.9 c 7.41,43.7 25.54,92.9 54.06,141.3 43.67,74.2 101.39,128.7 153.32,150.8 -80.64,-89.4 -149.18,-188.8 -207.38,-292.1"
           style="fill:#fdf7d6;fill-opacity:1;fill-rule:nonzero;stroke:none"
           id="path398" /></g><g
         id="g400"
         transform="scale(1.49169)"><path
           d="m 8839.28,16006 c -240.33,0 -499.63,125.5 -511.96,131.5 -39.56,19.4 -55.85,67.1 -36.54,106.7 19.37,39.5 67.11,55.8 106.66,36.6 2.95,-1.4 299.65,-144.6 510.36,-110.1 43.5,7 84.46,-22.4 91.57,-65.9 7.11,-43.5 -22.39,-84.5 -65.9,-91.6 -30.63,-5 -62.21,-7.2 -94.19,-7.2"
           style="fill:#0f227a;fill-opacity:1;fill-rule:nonzero;stroke:none"
           id="path402" /></g><g
         id="g404"
         transform="scale(1.63814)"><path
           d="m 8394.94,15980.6 h 0.31 z m 58.97,-35.1 c -1.95,0 -3.9,0 -5.8,0.1 -26.25,2.2 -48.1,17.9 -59.15,39.8 -45.66,32.5 -236.92,109.1 -398.2,164.1 -37.96,13 -58.23,54.2 -45.23,92.2 12.94,38 54.27,58.3 92.18,45.2 496.78,-169.5 492.57,-223 488.48,-274.5 -2.99,-38.1 -34.8,-66.9 -72.28,-66.9"
           style="fill:#0f227a;fill-opacity:1;fill-rule:nonzero;stroke:none"
           id="path406" /></g><g
         id="g408"
         transform="scale(1.56558)"><path
           d="m 8537.65,16075.2 c -6.32,0 -12.77,0.8 -19.22,2.5 l -247.96,64.7 c -40.56,10.6 -64.9,52.1 -54.3,92.7 10.61,40.6 52,64.9 92.75,54.4 l 247.89,-64.8 c 40.63,-10.6 64.96,-52.1 54.36,-92.7 -8.94,-34.2 -39.73,-56.8 -73.52,-56.8"
           style="fill:#0f227a;fill-opacity:1;fill-rule:nonzero;stroke:none"
           id="path410" /></g></g></g></svg>
